HIERARCHY
ROOT Hips
{
	OFFSET -3.958830 18.904000 13.208200
	CHANNELS 6 Xposition Yposition Zposition Zrotation Yrotation Xrotation 
	JOINT LHipJoint
	{
		OFFSET 0.000000 0.000000 0.000000
		CHANNELS 3 Zrotation Yrotation Xrotation
		JOINT LeftUpLeg
		{
			OFFSET 1.800000 -1.400000 0.085000
			CHANNELS 3 Zrotation Yrotation Xrotation
			JOINT LeftLeg
			{
				OFFSET 2.215000 -6.000000 0.000000
				CHANNELS 3 Zrotation Yrotation Xrotation
				JOINT LeftFoot
				{
					OFFSET 2.500000 -6.900000 0.000000
					CHANNELS 3 Zrotation Yrotation Xrotation
					JOINT LeftToeBase
					{
						OFFSET 0.200000 -0.500000 1.950000
						CHANNELS 3 Zrotation Yrotation Xrotation
						End Site
						{
							OFFSET 0.000000 0.000000 0.000000
						}
					}
				}
			}
		}
	}
	JOINT RHipJoint
	{
		OFFSET 0.000000 0.000000 0.000000
		CHANNELS 3 Zrotation Yrotation Xrotation
		JOINT RightUpLeg
		{
			OFFSET -1.800000 -1.400000 0.085000
			CHANNELS 3 Zrotation Yrotation Xrotation
			JOINT RightLeg
			{
				OFFSET -2.215000 -6.000000 0.000000
				CHANNELS 3 Zrotation Yrotation Xrotation
				JOINT RightFoot
				{
					OFFSET -2.500000 -6.900000 0.000000
					CHANNELS 3 Zrotation Yrotation Xrotation
					JOINT RightToeBase
					{
						OFFSET -0.200000 -0.500000 1.950000
						CHANNELS 3 Zrotation Yrotation Xrotation
						End Site
						{
							OFFSET 0.000000 0.000000 0.000000
						}
					}
				}
			}
		}
	}
	JOINT LowerBack
	{
		OFFSET 0.000000 0.000000 0.000000
		CHANNELS 3 Zrotation Yrotation Xrotation
		JOINT Spine
		{
			OFFSET -0.087000 1.940000 -0.288900
			CHANNELS 3 Zrotation Yrotation Xrotation
			JOINT Spine1
			{
				OFFSET 0.000000 1.950000 0.060000
				CHANNELS 3 Zrotation Yrotation Xrotation
				JOINT Neck
				{
					OFFSET 0.000000 0.000000 0.000000
					CHANNELS 3 Zrotation Yrotation Xrotation
					JOINT Neck1
					{
						OFFSET 0.000000 1.600000 0.340000
						CHANNELS 3 Zrotation Yrotation Xrotation
						JOINT Head
						{
							OFFSET 0.000000 1.667000 -0.240000
							CHANNELS 3 Zrotation Yrotation Xrotation
							End Site
							{
								OFFSET 0.000000 0.000000 0.000000
							}
						}
					}
				}
				JOINT LeftShoulder
				{
					OFFSET 0.000000 0.000000 0.000000
					CHANNELS 3 Zrotation Yrotation Xrotation
					JOINT LeftArm
					{
						OFFSET 2.700000 1.550000 -0.730000
						CHANNELS 3 Zrotation Yrotation Xrotation
						JOINT LeftForeArm
						{
							OFFSET 5.450000 0.000000 0.000000
							CHANNELS 3 Zrotation Yrotation Xrotation
							JOINT LeftHand
							{
								OFFSET 3.450000 0.000000 0.000000
								CHANNELS 3 Zrotation Yrotation Xrotation
								JOINT LeftHandIndex1
								{
									OFFSET 0.750000 0.000000 0.000000
									CHANNELS 3 Zrotation Yrotation Xrotation
									End Site
									{
										OFFSET 0.000000 0.000000 0.000000
									}
								}
							}
						}
					}
				}
				JOINT RightShoulder
				{
					OFFSET 0.000000 0.000000 0.000000
					CHANNELS 3 Zrotation Yrotation Xrotation
					JOINT RightArm
					{
						OFFSET -2.700000 1.550000 -0.730000
						CHANNELS 3 Zrotation Yrotation Xrotation
						JOINT RightForeArm
						{
							OFFSET -5.450000 0.000000 0.000000
							CHANNELS 3 Zrotation Yrotation Xrotation
							JOINT RightHand
							{
								OFFSET -3.450000 0.000000 0.000000
								CHANNELS 3 Zrotation Yrotation Xrotation
								JOINT RightHandIndex1
								{
									OFFSET -0.750000 0.000000 0.000000
									CHANNELS 3 Zrotation Yrotation Xrotation
									End Site
									{
										OFFSET 0.000000 0.000000 0.000000
									}
								}
							}
						}
					}
				}
			}
		}
	}
}
MOTION
Frames: 10
Frame Time: 0.016667
0.039830 16.712600 -2.958660 9.701918 -6.818147 -8.925444 -15.363570 13.534344 3.611488 1.741804 -2.220016 -4.173281 -22.378810 12.990253 22.431030 0.863734 7.314941 2.097119 0.037480 0.005960 0.034620 18.180131 -9.548684 3.227057 4.387587 4.198650 -37.768511 -12.266786 -0.133809 30.220616 0.010298 -3.076874 3.220549 0.045860 0.136720 0.000210 -3.053939 -4.203149 -8.234987 -2.333798 -8.303032 17.618642 -12.616875 -8.829408 -1.559663 1.883884 -6.264172 -7.597193 -16.319023 13.143338 35.820391 -0.277530 10.579850 3.205040 -36.950990 -9.768694 1.490097 -28.227964 -14.126331 -4.550522 9.038118 -14.203195 -1.637830 -3.882654 3.095444 0.032840 0.127590 -0.084500 0.040660 33.628615 9.257742 6.678294 58.045573 -9.507164 -13.547245 16.677913 24.941380 0.285514 2.469885 -1.331093 -0.101760 0.049770 0.002780 -0.066920 
0.030370 16.710250 -2.935690 9.436389 -7.298742 -8.855964 -15.361842 13.561756 3.580259 1.804471 -2.123543 -4.199845 -21.885696 12.935586 22.618527 0.851612 7.284583 2.107528 0.033560 0.002180 0.030970 18.180379 -9.544408 3.233332 4.263538 4.258269 -37.579829 -11.303856 -0.397938 29.780407 0.032337 -2.984221 3.255861 0.044150 0.141480 0.002090 -3.052011 -4.230725 -8.197087 -2.067661 -8.453262 17.353573 -12.436305 -8.983495 -1.795496 1.876595 -6.408774 -7.402295 -16.384274 13.273584 35.275769 -0.425790 10.817610 3.173570 -36.693185 -9.141162 1.295416 -28.649981 -12.979510 -4.260524 7.748752 -13.585559 -1.417325 -3.880684 3.094924 0.028910 0.132510 -0.088220 0.040620 33.409074 8.689030 6.377646 58.039072 -9.625572 -13.633834 16.747296 24.745364 0.280993 2.473751 -1.328317 -0.102410 0.048840 0.005250 -0.066250 
0.007240 16.706260 -2.885190 8.735290 -8.096056 -8.671446 -15.367510 13.597182 3.516368 2.232306 -1.973800 -4.190198 -21.243878 12.938054 22.931222 0.841052 7.286075 2.114099 0.016570 -0.015460 0.017240 18.178555 -9.510541 3.254133 4.157601 4.464198 -37.283626 -9.646594 -0.852685 29.317050 0.067920 -2.884604 3.299845 0.038580 0.163150 0.002120 -3.036068 -4.293399 -8.122661 -1.447421 -8.707294 16.634776 -12.110221 -9.194440 -2.082947 1.916514 -6.575535 -6.941047 -16.283930 13.508460 34.413524 -0.621300 11.268510 3.534770 -36.139146 -7.781772 0.861793 -29.750941 -10.949365 -3.820594 5.532415 -12.716112 -1.093518 -3.886165 3.088096 0.015020 0.150900 -0.104910 0.041720 32.798914 7.384362 5.735085 58.038500 -9.853165 -13.761975 16.965596 24.186705 0.257222 2.482536 -1.320990 -0.111000 0.052420 0.013490 -0.063690 
-0.023850 16.698780 -2.832600 7.917686 -9.184912 -8.427926 -15.378715 13.644414 3.431651 2.673304 -1.779451 -4.255953 -20.302354 12.850857 23.256763 0.817925 7.247455 2.133120 0.001870 -0.025940 -0.003440 18.172158 -9.468511 3.285903 3.938093 4.749989 -36.997096 -7.693450 -1.410862 29.275811 0.094429 -2.865388 3.316247 0.038690 0.191540 0.003290 -3.003231 -4.375782 -8.031231 -0.845855 -8.889648 15.843520 -11.534066 -9.336602 -2.471440 1.874668 -6.894955 -6.379084 -16.451073 13.865865 33.180808 -0.716110 11.698160 3.850040 -35.661518 -6.092762 0.328929 -31.245789 -8.836055 -3.426294 3.241971 -11.745193 -0.812529 -3.897202 3.083798 -0.005770 0.173810 -0.125800 0.046790 32.448820 5.887038 5.002754 57.558269 -10.267676 -13.848810 17.189554 23.487457 0.210623 2.485648 -1.320792 -0.117880 0.057730 0.022630 -0.056200 
-0.069350 16.693980 -2.770620 7.117650 -10.575190 -8.191437 -15.406818 13.708352 3.343139 3.166809 -1.565813 -4.239753 -19.305265 12.783150 23.660263 0.795953 7.224652 2.146465 -0.010550 -0.032320 -0.022620 18.149774 -9.428591 3.296279 3.710594 5.000243 -36.356847 -5.666878 -1.981005 29.094521 0.116779 -2.861200 3.326907 0.042780 0.221440 0.004750 -2.919390 -4.489684 -7.920264 -0.584537 -8.966168 14.880269 -10.705043 -9.403420 -2.871412 1.780308 -7.097860 -5.707901 -16.344929 14.446745 31.845420 -0.588100 12.371990 4.089930 -35.043888 -4.027558 -0.258962 -32.786519 -6.498330 -3.197913 0.910267 -10.856072 -0.585994 -3.910851 3.081549 -0.026050 0.197960 -0.146510 0.052340 32.120504 3.979350 4.112808 57.163370 -10.896346 -14.099225 17.228454 23.026753 0.148614 2.483219 -1.320928 -0.126560 0.063290 0.030730 -0.049860 
-0.111280 16.702790 -2.709260 6.257412 -12.120756 -8.000037 -15.401515 13.756024 3.242851 3.549140 -1.339833 -4.211885 -18.035732 12.611440 24.115538 0.762661 7.161914 2.171030 -0.022800 -0.041720 -0.036070 18.155330 -9.422579 3.320505 3.528010 5.251977 -35.625375 -3.356385 -2.625506 28.584929 0.137232 -2.847440 3.340020 0.043720 0.244440 0.007030 -2.924761 -4.502871 -7.816688 0.192451 -9.068128 14.114703 -10.308054 -9.495203 -3.380086 1.770613 -7.315236 -5.062395 -16.313614 15.046305 30.725009 -0.710790 13.175000 4.294670 -34.745936 -2.041242 -0.748286 -34.054960 -4.074959 -3.218885 -1.018125 -9.861233 -0.453842 -3.924458 3.076385 -0.040730 0.218730 -0.162900 0.054980 31.838022 2.129424 3.239631 56.928879 -11.493207 -14.368022 17.340361 22.401947 0.071245 2.484996 -1.316455 -0.135110 0.066020 0.038290 -0.047630 
-0.154020 16.725540 -2.644150 5.403634 -13.641241 -7.871976 -15.389486 13.814814 3.160096 3.858336 -1.107287 -4.101624 -16.762386 12.404541 24.534438 0.734658 7.083180 2.198204 -0.029990 -0.045640 -0.042520 18.156781 -9.479834 3.298358 3.150392 5.271337 -34.304141 -1.045333 -3.245229 27.623698 0.152223 -2.822186 3.357896 0.043070 0.256620 0.008510 -2.929422 -4.459146 -7.716919 0.880547 -8.975215 13.343426 -9.913119 -9.398070 -3.918809 1.806721 -7.336717 -4.445208 -16.033689 15.502749 30.363185 -0.689990 13.829100 4.529520 -34.588488 -0.133622 -1.214624 -35.324624 -1.764042 -3.306637 -2.560575 -8.416070 -0.400415 -3.937005 3.060103 -0.049760 0.231020 -0.170140 0.056460 31.589613 0.310886 2.402444 56.530427 -12.143629 -14.551179 17.112481 21.520475 -0.056255 2.491934 -1.304793 -0.138420 0.065780 0.040680 -0.046250 
-0.196200 16.749530 -2.580680 4.502153 -14.941438 -7.703137 -15.382623 13.879169 3.079943 4.186788 -0.887902 -3.945853 -15.478576 12.166626 24.917229 0.706022 7.000732 2.225477 -0.034670 -0.051400 -0.044540 18.150297 -9.539797 3.271807 2.648589 5.211802 -32.791908 1.667966 -3.930905 26.247044 0.160896 -2.803725 3.371801 0.039830 0.262100 0.011380 -2.915475 -4.424192 -7.626276 1.472140 -8.799860 12.589201 -9.292881 -9.211949 -4.470258 1.810007 -7.361652 -3.858033 -15.890120 15.817091 30.301795 -0.750190 14.325790 4.746180 -34.385842 1.835342 -1.666603 -36.930386 0.605935 -3.656560 -3.773265 -7.511415 -0.408269 -3.942944 3.046800 -0.051770 0.237210 -0.172650 0.057190 31.380653 -1.485771 1.608935 55.970522 -12.844553 -14.777335 16.608291 20.982216 -0.160036 2.494733 -1.294056 -0.140530 0.062960 0.041920 -0.047080 
-0.245460 16.771560 -2.511760 3.700891 -16.142476 -7.452197 -15.401920 13.945652 2.991293 4.399318 -0.638641 -3.701785 -14.249897 11.901761 25.140177 0.684567 6.912714 2.257658 -0.050380 -0.067320 -0.060470 18.130507 -9.566641 3.229973 2.383448 5.108367 -31.124865 3.996786 -4.433502 24.666118 0.172553 -2.791157 3.388277 0.030870 0.277100 0.012630 -2.849346 -4.461970 -7.495044 1.865649 -8.663501 11.410590 -8.434280 -9.054863 -4.789811 1.727218 -7.513520 -3.276714 -16.104490 16.225607 29.982678 -0.699520 14.754440 5.304430 -33.357047 4.352462 -2.175505 -39.288709 3.020841 -4.263298 -5.182221 -7.122334 -0.431809 -3.959920 3.035508 -0.061860 0.248490 -0.184270 0.057230 30.560322 -3.695964 0.767728 55.815347 -13.617319 -15.242012 16.359557 21.047631 -0.182070 2.495930 -1.284090 -0.143540 0.059780 0.050290 -0.043070 
-0.291620 16.798870 -2.453850 3.037499 -17.320650 -7.282340 -15.420836 14.024186 2.908149 4.334108 -0.416387 -3.560300 -12.833894 11.521568 25.379523 0.652058 6.783746 2.303142 -0.057270 -0.070390 -0.074860 18.111580 -9.591214 3.184678 2.179333 4.939907 -29.499893 5.736393 -4.748080 23.199632 0.176228 -2.785304 3.405084 0.030190 0.292200 0.009140 -2.782969 -4.540081 -7.362836 2.149484 -8.739774 10.456378 -7.481768 -9.138213 -5.225899 1.476537 -7.855766 -2.701139 -16.800686 17.006947 29.470380 -0.421850 15.299060 5.610760 -32.264501 6.967070 -2.570299 -41.498151 5.638210 -5.105210 -6.870588 -7.165300 -0.469105 -3.966720 3.025787 -0.066670 0.255280 -0.192410 0.062440 30.039250 -5.885177 -0.140751 55.374135 -14.256139 -15.624538 16.253843 21.375418 -0.152830 2.489544 -1.276702 -0.148370 0.065450 0.054800 -0.038210 
